<?xml version="1.0" encoding="utf-8"?>
<!-- Generator: Adobe Illustrator 24.1.1, SVG Export Plug-In . SVG Version: 6.00 Build 0)  -->
<svg version="1.1" id="Capa_1" xmlns="http://www.w3.org/2000/svg" xmlns:xlink="http://www.w3.org/1999/xlink" x="0px" y="0px"
	 viewBox="0 0 23.1 23.1" style="enable-background:new 0 0 23.1 23.1;" xml:space="preserve">
<style type="text/css">
	.st0{fill:#FFFFFF;}
</style>
<g>
	<path class="st0" d="M8.3,4.5c0-0.1,0-0.5,0.1-0.9c0-0.5,0.2-1,0.5-1.5c0.3-0.5,0.8-1,1.6-1.4C11.1,0.2,12.2,0,13.5,0h3.8v4.2h-2.8
		c-0.3,0-0.5,0.1-0.8,0.3c-0.2,0.2-0.4,0.4-0.4,0.6v2.6h3.9c0,0.5-0.1,1-0.1,1.5l-0.2,1.3c-0.1,0.4-0.1,0.8-0.2,1.2h-3.5v11.5H8.3
		V11.6H5.7V7.6h2.5V4.5z"/>
</g>
</svg>
