<?xml version="1.0" encoding="utf-8"?>
<!-- Generator: Adobe Illustrator 24.1.1, SVG Export Plug-In . SVG Version: 6.00 Build 0)  -->
<svg version="1.1" id="Layer_1" xmlns="http://www.w3.org/2000/svg" xmlns:xlink="http://www.w3.org/1999/xlink" x="0px" y="0px"
	 viewBox="0 0 392 392" style="enable-background:new 0 0 392 392;" xml:space="preserve">
<style type="text/css">
	.st0{fill:#FFFFFF;}
</style>
<path class="st0" d="M298.8,285.2c27.9-31.3,43.4-71.7,43.3-113.6c0-94.4-76.8-171.1-171.1-171.1C76.7,0.5,0,77.3,0,171.6
	s76.8,171.1,171.1,171.1c41.9,0,82.4-15.4,113.6-43.3l90.2,90.2c1.9,1.9,4.4,2.9,7.1,2.9c2.6,0,5.2-1,7.1-2.9c1.9-1.9,2.9-4.4,2.9-7
	c0-2.6-1-5.2-2.9-7L298.8,285.2z M19.9,171.6C19.9,88.3,87.7,20.5,171,20.5c83.3,0,151.1,67.8,151.1,151.1S254.3,322.7,171,322.7
	C87.7,322.7,19.9,254.9,19.9,171.6z"/>
</svg>
