<?xml version="1.0" encoding="utf-8"?>
<!-- Generator: Adobe Illustrator 24.1.1, SVG Export Plug-In . SVG Version: 6.00 Build 0)  -->
<svg version="1.1" id="Calque_2" xmlns="http://www.w3.org/2000/svg" xmlns:xlink="http://www.w3.org/1999/xlink" x="0px" y="0px"
	 viewBox="0 0 16 16" style="enable-background:new 0 0 16 16;" xml:space="preserve">
<style type="text/css">
	.st0{fill:#C9A083;}
</style>
<g>
	<path class="st0" d="M1.3,8L0,4.4l6.6,2.9c0.1,0,0.1,0,0.2,0c0.1,0,0.3-0.1,0.3-0.1l0,0C7.3,7.1,7.3,7,7.3,6.8c0-0.1,0-0.1,0-0.2
		L4.4,0L8,1.3l0,0L11.6,0L8.7,6.7c0,0.1,0,0.1,0,0.2c0,0.1,0.1,0.3,0.1,0.3l0,0C8.9,7.3,9,7.3,9.2,7.3c0.1,0,0.1,0,0.2,0L16,4.4
		L14.7,8l1.3,3.6L9.4,8.7c-0.1,0-0.1,0-0.2,0C9.1,8.7,9,8.8,8.9,8.8l0,0C8.8,8.9,8.7,9,8.7,9.2c0,0.1,0,0.1,0,0.2l2.8,6.6L8,14.7
		L4.4,16l2.9-6.6c0-0.1,0-0.1,0-0.2c0-0.1-0.1-0.3-0.1-0.3l0,0C7.1,8.7,7,8.7,6.8,8.7c-0.1,0-0.1,0-0.2,0L0,11.6L1.3,8z"/>
</g>
</svg>
