<?xml version="1.0" encoding="utf-8"?>
<!-- Generator: Adobe Illustrator 24.1.1, SVG Export Plug-In . SVG Version: 6.00 Build 0)  -->
<svg version="1.1" id="Capa_1" xmlns="http://www.w3.org/2000/svg" xmlns:xlink="http://www.w3.org/1999/xlink" x="0px" y="0px"
	 viewBox="0 0 512 512" style="enable-background:new 0 0 512 512;" xml:space="preserve">
<style type="text/css">
	.st0{fill:#FFFFFF;}
	.st1{fill:#A66851;}
</style>
<g>
	<g>
		<path class="st0" d="M357.5,229.8c-17.1-17.1-39.7-26.5-63.9-26.5s-46.8,9.4-63.9,26.5s-26.5,39.7-26.5,63.9s9.4,46.8,26.5,63.9
			c17.6,17.6,40.7,26.4,63.9,26.4c23.1,0,46.3-8.8,63.9-26.4c17.1-17.1,26.5-39.7,26.5-63.9C384,269.5,374.6,246.8,357.5,229.8z
			 M346.9,346.9c-14.2,14.2-33.1,22.1-53.3,22.1s-39-7.8-53.3-22.1c-14.2-14.2-22.1-33.1-22.1-53.3s7.8-39,22.1-53.3
			c14.2-14.2,33.1-22.1,53.3-22.1c20.1,0,39,7.8,53.3,22.1l0,0c14.2,14.2,22.1,33.1,22.1,53.3C369,313.8,361.1,332.7,346.9,346.9z"
			/>
	</g>
</g>
<g>
	<g>
		<path class="st0" d="M509.8,452.3L435,377.6c28.7-40.5,43.8-88.1,43.8-138.1c0-64-24.9-124.1-70.1-169.3
			C363.5,24.9,303.4,0,239.4,0l0,0l0,0c-64,0-124.1,24.9-169.3,70.1C24.9,115.4,0,175.5,0,239.4s24.9,124.1,70.1,169.3
			s105.3,70.1,169.3,70.1l0,0l0,0c50,0,97.6-15.1,138.1-43.8l74.8,74.8c1.4,1.4,3.3,2.2,5.3,2.2s3.9-0.8,5.3-2.2l46.9-46.9
			c1.4-1.4,2.2-3.3,2.2-5.3C512,455.6,511.2,453.7,509.8,452.3z M436,347.9h-31.4c15.4-31.6,16.6-68.6,3.4-101h55.8
			C462.6,282.7,453.1,317,436,347.9z M426.9,362.9c-1.2,1.8-2.4,3.5-3.6,5.3c-2.2-0.2-4.4,0.5-6.1,2.2l-6.4,6.4L397,363h29.9V362.9z
			 M463.7,231.9h-63.1c-5.3-9.2-11.8-17.8-19.6-25.6c-6.4-6.4-13.4-11.9-20.7-16.7c-2.2-20.5-5.8-40.2-10.6-58.7h86.2
			C452.6,161.1,462.5,195.4,463.7,231.9z M426.8,116h-81.3c-6.9-22.1-15.5-42.1-25.6-59C311,42.1,301,30,290.3,20.8
			C347,34,395.5,68.8,426.8,116z M246.9,15.6c21.7,3.2,42.8,20.4,60.1,49.2c8.9,14.7,16.5,32,22.7,51.2h-82.8L246.9,15.6L246.9,15.6
			z M246.9,131h87.2c4.3,15.8,7.6,32.5,9.9,50c-30.8-13.7-66.1-14.3-97.2-1.6L246.9,131L246.9,131z M231.9,15.6V116h-82.8
			c4.3-13.3,9.3-25.7,15-37.2C182.9,41.3,206.7,19.2,231.9,15.6z M182.7,347.9h-38.1c-8.3-30.7-13-65.1-13.6-101h48.3
			C166.2,279.3,167.3,316.3,182.7,347.9z M131,231.9c0.6-35.9,5.3-70.2,13.6-101h87.3v55.7c-9.2,5.3-17.8,11.8-25.6,19.6
			s-14.4,16.4-19.6,25.6L131,231.9L131,231.9z M188.4,20.9c-14,12.1-26.7,29.4-37.7,51.2c-6.7,13.4-12.5,28.2-17.4,43.9H52.1
			C83.3,68.8,131.7,34.1,188.4,20.9z M43,131h86.1c-8,31-12.5,65.3-13.1,101H15.2c0,0,0,0-0.1,0C16.3,195.4,26.3,161.1,43,131z
			 M15.1,246.9C15.2,246.9,15.2,246.9,15.1,246.9H116c0.6,35.6,5.1,70,13.1,101H43C26.3,317.8,16.3,283.5,15.1,246.9z M52.1,362.9
			h81.3c4.8,15.7,10.6,30.5,17.4,43.9c10.9,21.9,23.7,39.1,37.7,51.2C131.7,444.8,83.3,410,52.1,362.9z M231.9,463.3
			c-25.2-3.7-49.1-25.8-67.8-63.2c-5.7-11.4-10.7-23.9-15-37.2h42.3l0,0c4.3,6.4,9.3,12.4,14.9,18c7.8,7.8,16.4,14.4,25.6,19.6
			V463.3L231.9,463.3z M216.9,370.3c-42.3-42.3-42.3-111.1,0-153.4c21.1-21.1,48.9-31.7,76.7-31.7s55.6,10.6,76.7,31.7
			c42.3,42.3,42.3,111.1,0,153.4S259.2,412.6,216.9,370.3z M246.9,463.3v-55.4c14.9,6.1,30.8,9.1,46.7,9.1c4,0,8-0.2,11.9-0.6
			C288.5,443.9,268.2,460.2,246.9,463.3z M370.3,417.2c-1.7,1.7-2.4,3.9-2.2,6.1c-23.7,16.7-50.1,28.4-77.9,34.8
			c12.7-11,24.4-26.1,34.6-45.1c13.1-3.4,25.8-9,37.4-16.8l14.5,14.5L370.3,417.2z M374.3,387.1c2.3-2,4.5-4,6.6-6.2
			c2.2-2.2,4.2-4.4,6.2-6.6l13.1,13.1l-12.8,12.8L374.3,387.1z M386.2,422.5l36.3-36.3l12.8,12.8L399,435.3L386.2,422.5z
			 M457.6,493.9l-48-48l36.3-36.3l48,48L457.6,493.9z"/>
	</g>
</g>
<path class="st1" d="M256.6,293.6l-7.2-19.8l36.9,15.9c0.3,0.2,0.6,0.2,0.9,0.2c0.8,0,1.4-0.3,1.9-0.8l0,0c0.5-0.5,0.8-1.1,0.8-1.9
	c0-0.3,0-0.6-0.2-0.9l-15.9-36.9l19.8,7.2l0,0l19.8-7.2l-15.9,36.9c-0.2,0.3-0.2,0.6-0.2,0.9c0,0.8,0.3,1.4,0.8,1.9l0,0
	c0.5,0.5,1.1,0.8,1.9,0.8c0.3,0,0.6,0,0.9-0.2l37-15.9l-7.2,19.8l7.2,19.8l-36.7-15.8c-0.3-0.2-0.6-0.2-0.9-0.2
	c-0.8,0-1.4,0.3-1.9,0.8l0,0c-0.5,0.5-0.8,1.1-0.8,1.9c0,0.3,0,0.6,0.2,0.9l15.8,36.7l-19.8-7.2l-20,7.2l15.9-36.9
	c0.2-0.3,0.2-0.6,0.2-0.9c0-0.8-0.3-1.4-0.8-1.9l0,0c-0.5-0.5-1.1-0.8-1.9-0.8c-0.3,0-0.6,0-0.9,0.2l-36.9,15.9L256.6,293.6z"/>
</svg>
